<svg width="100" height="100" viewBox="0 0 100 100" xmlns="http://www.w3.org/2000/svg">
  <rect width="100" height="100" rx="20" fill="#786F85"/>
  <ellipse cx="50" cy="45" rx="35" ry="20" fill="none" stroke="white" stroke-width="3"/>
  <circle cx="50" cy="45" r="15" fill="#C3BBC5"/>
  <circle cx="50" cy="45" r="10" fill="#5A4A3A"/>
  <circle cx="46" cy="41" r="3" fill="white" opacity="0.9"/>
  <text x="50" y="75" font-family="Arial, sans-serif" font-size="14" font-weight="bold" fill="white" text-anchor="middle">STEM</text>
  <path d="M 20,20 L 21,23 L 24,23 L 22,25 L 23,28 L 20,26 L 17,28 L 18,25 L 16,23 L 19,23 Z" fill="#F6EEEE" opacity="0.9"/>
  <path d="M 80,25 L 81,27 L 83,27 L 82,28 L 82,30 L 80,29 L 78,30 L 78,28 L 77,27 L 79,27 Z" fill="#F6EEEE" opacity="0.9"/>
</svg>
